<svg width="0" height="0" class="hidden">
  <symbol fill="none" xmlns="http://www.w3.org/2000/svg" viewBox="0 0 24 24" id="Calling">
    <g id="Iconly/Regular/Two-tone/Calling">
      <g id="Calling">
        <path id="Stroke 1" opacity="0.4" d="M14.353 2.5C18.054 2.911 20.978 5.831 21.393 9.532" stroke="#FF9500" stroke-width="1.5" stroke-linecap="round" stroke-linejoin="round"></path>
        <path id="Stroke 3" opacity="0.4" d="M14.353 6.04297C16.124 6.38697 17.508 7.77197 17.853 9.54297" stroke="#FF9500" stroke-width="1.5" stroke-linecap="round" stroke-linejoin="round"></path>
        <path id="Stroke 5" fill-rule="evenodd" clip-rule="evenodd" d="M11.0315 12.4724C15.0205 16.4604 15.9254 11.8467 18.4653 14.3848C20.9138 16.8328 22.3222 17.3232 19.2188 20.4247C18.8302 20.737 16.3613 24.4943 7.68447 15.8197C-0.993406 7.144 2.76157 4.67244 3.07394 4.28395C6.18377 1.17385 6.66682 2.58938 9.11539 5.03733C11.6541 7.5765 7.04254 8.48441 11.0315 12.4724Z" stroke="#FF9500" stroke-width="1.5" stroke-linecap="round" stroke-linejoin="round"></path>
      </g>
    </g>
  </symbol>
  <symbol xmlns="http://www.w3.org/2000/svg" xmlns:xlink="http://www.w3.org/1999/xlink" fill-rule="nonzero" viewBox="0,0,256,256" id="icons8-facebook">
    <g fill="none" fill-rule="nonzero" stroke="none" stroke-width="1" stroke-linecap="butt" stroke-linejoin="miter" stroke-miterlimit="10" stroke-dasharray="" stroke-dashoffset="0" font-family="none" font-weight="none" font-size="none" text-anchor="none">
      <g transform="scale(5.33333,5.33333)">
        <path d="M24,5c-10.49341,0 -19,8.50659 -19,19c0,10.49341 8.50659,19 19,19c10.49341,0 19,-8.50659 19,-19c0,-10.49341 -8.50659,-19 -19,-19z" fill="#e54503"></path>
        <path d="M26.572,29.036h4.917l0.772,-4.995h-5.69v-2.73c0,-2.075 0.678,-3.915 2.619,-3.915h3.119v-4.359c-0.548,-0.074 -1.707,-0.236 -3.897,-0.236c-4.573,0 -7.254,2.415 -7.254,7.917v3.323h-4.701v4.995h4.701v13.729c0.931,0.14 1.874,0.235 2.842,0.235c0.875,0 1.729,-0.08 2.572,-0.194z" fill="#ffffff"></path>
      </g>
    </g>
  </symbol>
  <symbol xmlns="http://www.w3.org/2000/svg" xmlns:xlink="http://www.w3.org/1999/xlink" fill-rule="nonzero" viewBox="0,0,256,256" id="icons8-linkedin">
    <g fill="none" fill-rule="nonzero" stroke="none" stroke-width="1" stroke-linecap="butt" stroke-linejoin="miter" stroke-miterlimit="10" stroke-dasharray="" stroke-dashoffset="0" font-family="none" font-weight="none" font-size="none" text-anchor="none">
      <g transform="scale(5.33333,5.33333)">
        <path d="M42,37c0,2.762 -2.238,5 -5,5h-26c-2.761,0 -5,-2.238 -5,-5v-26c0,-2.762 2.239,-5 5,-5h26c2.762,0 5,2.238 5,5z" fill="#ff5900"></path>
        <path d="M12,19h5v17h-5zM14.485,17h-0.028c-1.492,0 -2.457,-1.112 -2.457,-2.501c0,-1.419 0.995,-2.499 2.514,-2.499c1.521,0 2.458,1.08 2.486,2.499c0,1.388 -0.965,2.501 -2.515,2.501zM36,36h-5v-9.099c0,-2.198 -1.225,-3.698 -3.192,-3.698c-1.501,0 -2.313,1.012 -2.707,1.99c-0.144,0.35 -0.101,1.318 -0.101,1.807v9h-5v-17h5v2.616c0.721,-1.116 1.85,-2.616 4.738,-2.616c3.578,0 6.261,2.25 6.261,7.274l0.001,9.726z" fill="#ffffff"></path>
      </g>
    </g>
  </symbol>
  <symbol xmlns="http://www.w3.org/2000/svg" xmlns:xlink="http://www.w3.org/1999/xlink" fill-rule="nonzero" viewBox="0,0,256,256" id="icons8-twitter">
    <g fill="#e54503" fill-rule="nonzero" stroke="none" stroke-width="1" stroke-linecap="butt" stroke-linejoin="miter" stroke-miterlimit="10" stroke-dasharray="" stroke-dashoffset="0" font-family="none" font-weight="none" font-size="none" text-anchor="none">
      <g transform="scale(5.33333,5.33333)">
        <path d="M42,12.429c-1.323,0.586 -2.746,0.977 -4.247,1.162c1.526,-0.906 2.7,-2.351 3.251,-4.058c-1.428,0.837 -3.01,1.452 -4.693,1.776c-1.344,-1.425 -3.261,-2.309 -5.385,-2.309c-4.08,0 -7.387,3.278 -7.387,7.32c0,0.572 0.067,1.129 0.193,1.67c-6.138,-0.308 -11.582,-3.226 -15.224,-7.654c-0.64,1.082 -1,2.349 -1,3.686c0,2.541 1.301,4.778 3.285,6.096c-1.211,-0.037 -2.351,-0.374 -3.349,-0.914c0,0.022 0,0.055 0,0.086c0,3.551 2.547,6.508 5.923,7.181c-0.617,0.169 -1.269,0.263 -1.941,0.263c-0.477,0 -0.942,-0.054 -1.392,-0.135c0.94,2.902 3.667,5.023 6.898,5.086c-2.528,1.96 -5.712,3.134 -9.174,3.134c-0.598,0 -1.183,-0.034 -1.761,-0.104c3.271,2.071 7.155,3.285 11.324,3.285c13.585,0 21.017,-11.156 21.017,-20.834c0,-0.317 -0.01,-0.633 -0.025,-0.945c1.45,-1.024 2.7,-2.316 3.687,-3.792"></path>
      </g>
    </g>
  </symbol>
  <symbol fill="none" xmlns="http://www.w3.org/2000/svg" viewBox="0 0 18 21" id="Location">
    <path fill-rule="evenodd" clip-rule="evenodd" d="M1.23901 9.39123C1.25342 5.15065 4.70278 1.72465 8.94336 1.73906C13.1839 1.75347 16.6099 5.20282 16.5955 9.44341V9.53036C16.5434 12.2869 15.0042 14.8347 13.1173 16.826C12.0381 17.9466 10.833 18.9387 9.52597 19.7825C9.17648 20.0848 8.65807 20.0848 8.30858 19.7825C6.36008 18.5143 4.64995 16.9131 3.2564 15.0521C2.01436 13.4293 1.30918 11.4597 1.23901 9.41732L1.23901 9.39123Z" stroke="#FF9500" stroke-width="1.5" stroke-linecap="round" stroke-linejoin="round"></path>
    <circle opacity="0.4" cx="8.91717" cy="9.53899" r="2.46087" stroke="#FF9500" stroke-width="1.5" stroke-linecap="round" stroke-linejoin="round"></circle>
  </symbol>
  <symbol fill="none" xmlns="http://www.w3.org/2000/svg" viewBox="0 0 24 24" id="Message">
    <path opacity="0.4" d="M17.2678 8.56104L13.0024 11.9953C12.1952 12.6282 11.0636 12.6282 10.2564 11.9953L5.95435 8.56104" stroke="#FF9500" stroke-width="1.5" stroke-linecap="round" stroke-linejoin="round"></path>
    <path fill-rule="evenodd" clip-rule="evenodd" d="M6.88787 3H16.3158C17.6752 3.01525 18.969 3.58993 19.896 4.5902C20.823 5.59048 21.3022 6.92903 21.222 8.29412V14.822C21.3022 16.1871 20.823 17.5256 19.896 18.5259C18.969 19.5262 17.6752 20.1009 16.3158 20.1161H6.88787C3.96796 20.1161 2 17.7407 2 14.822V8.29412C2 5.37545 3.96796 3 6.88787 3Z" stroke="#FF9500" stroke-width="1.5" stroke-linecap="round" stroke-linejoin="round"></path>
  </symbol>
</svg>